<svg xmlns="http://www.w3.org/2000/svg" viewBox="0 0 24.8 25.97"><defs><style>.cls-1{fill:#fff;}</style></defs><title>calendar</title><g id="Layer_2" data-name="Layer 2"><g id="Capa_1" data-name="Capa 1"><g id="Nuevo_símbolo" data-name="Nuevo símbolo"><g id="Nuevo_símbolo_3" data-name="Nuevo símbolo 3"><path class="cls-1" d="M7.38,0a.83.83,0,0,0-.84.83v.83H4.17A4.17,4.17,0,0,0,0,5.84v16A4.17,4.17,0,0,0,4.17,26H20.63a4.17,4.17,0,0,0,4.17-4.17v-16a4.17,4.17,0,0,0-4.17-4.17H18.26V.83a.83.83,0,1,0-1.67,0v.83H8.21V.83A.85.85,0,0,0,7.38,0ZM20.66,24.33H4.17a2.52,2.52,0,0,1-2.5-2.5V10a.65.65,0,0,0,.27,0h21c.1,0,.17,0,.27,0V21.83A2.52,2.52,0,0,1,20.66,24.33Zm-4-21v.84a.83.83,0,0,0,1.67,0V3.34h2.37a2.52,2.52,0,0,1,2.5,2.5V8.41a.65.65,0,0,0-.27,0h-21c-.1,0-.17,0-.27,0V5.84a2.52,2.52,0,0,1,2.5-2.5H6.54v.84a.83.83,0,0,0,1.67,0V3.34Z"/><path class="cls-1" d="M9.61,12.52H8.54a.83.83,0,1,0,0,1.67H9.61a.83.83,0,0,0,0-1.67Z"/><path class="cls-1" d="M13,12.52H11.88a.83.83,0,1,0,0,1.67H13a.83.83,0,1,0,0-1.67Z"/><path class="cls-1" d="M16.29,12.52H15.22a.83.83,0,1,0,0,1.67h1.07a.83.83,0,0,0,0-1.67Z"/><path class="cls-1" d="M19.62,12.52H18.56a.83.83,0,1,0,0,1.67h1.07a.83.83,0,1,0,0-1.67Z"/><path class="cls-1" d="M6.27,15.85H5.21a.83.83,0,1,0,0,1.67H6.27a.83.83,0,1,0,0-1.67Z"/><path class="cls-1" d="M9.61,15.85H8.54a.83.83,0,0,0,0,1.67H9.61a.83.83,0,0,0,0-1.67Z"/><path class="cls-1" d="M13,15.85H11.88a.83.83,0,0,0,0,1.67H13a.83.83,0,0,0,0-1.67Z"/><path class="cls-1" d="M16.29,15.85H15.22a.83.83,0,1,0,0,1.67h1.07a.83.83,0,0,0,0-1.67Z"/><path class="cls-1" d="M19.62,15.85H18.56a.83.83,0,1,0,0,1.67h1.07a.83.83,0,0,0,0-1.67Z"/><path class="cls-1" d="M6.27,19.19H5.21a.83.83,0,1,0,0,1.67H6.27a.83.83,0,1,0,0-1.67Z"/><path class="cls-1" d="M9.61,19.19H8.54a.83.83,0,0,0,0,1.67H9.61a.83.83,0,0,0,0-1.67Z"/><path class="cls-1" d="M13,19.19H11.88a.83.83,0,0,0,0,1.67H13a.83.83,0,0,0,0-1.67Z"/><path class="cls-1" d="M16.29,19.19H15.22a.83.83,0,1,0,0,1.67h1.07a.83.83,0,0,0,0-1.67Z"/></g></g></g></g></svg>