<svg xmlns="http://www.w3.org/2000/svg" viewBox="0 0 8.93 10.54"><defs><style>.cls-1{fill:#fff;}</style></defs><title>download</title><g id="Layer_2" data-name="Layer 2"><g id="Capa_1" data-name="Capa 1"><g id="Nuevo_símbolo" data-name="Nuevo símbolo"><g id="Nuevo_símbolo_3" data-name="Nuevo símbolo 3"><path class="cls-1" d="M7.82,3.61a.65.65,0,0,1,.92,0h0a.65.65,0,0,1,0,.92h0L4.92,8.34a.65.65,0,0,1-.91,0H4a.65.65,0,0,1,0-.92H4L7.82,3.61Z"/><path class="cls-1" d="M.19,4.53a.65.65,0,0,1,0-.92h0a.65.65,0,0,1,.92,0h0L4.92,7.43a.65.65,0,0,1,0,.92h0a.65.65,0,0,1-.91,0H4L.19,4.53Z"/><path class="cls-1" d="M8.18,9.25a.65.65,0,0,1,.65.65h0a.65.65,0,0,1-.65.65H.74A.65.65,0,0,1,.09,9.9h0a.65.65,0,0,1,.65-.65H8.18Z"/><path class="cls-1" d="M3.81.65A.65.65,0,0,1,4.46,0h0a.65.65,0,0,1,.65.65h0V7.89a.65.65,0,0,1-.65.65h0a.65.65,0,0,1-.65-.65h0V.65Z"/></g></g></g></g></svg>