<svg xmlns="http://www.w3.org/2000/svg" viewBox="0 0 25 25"><defs><style>.cls-1{fill:#fff;}</style></defs><title>hour</title><g id="Layer_2" data-name="Layer 2"><g id="Capa_1" data-name="Capa 1"><g id="Nuevo_símbolo" data-name="Nuevo símbolo"><g id="Nuevo_símbolo_3" data-name="Nuevo símbolo 3"><path class="cls-1" d="M12.5,25A12.5,12.5,0,1,0,0,12.5,12.53,12.53,0,0,0,12.5,25ZM1.91,11.91H1.21A11.33,11.33,0,0,1,11.91,1.21v.71a.59.59,0,1,0,1.18,0V1.21A11.33,11.33,0,0,1,23.79,11.91h-.71a.59.59,0,0,0,0,1.18h.71A11.33,11.33,0,0,1,13.09,23.79v-.71a.59.59,0,0,0-1.18,0v.71A11.32,11.32,0,0,1,1.21,13.09h.71a.59.59,0,0,0,0-1.18Z"/><path class="cls-1" d="M12.5,13.82a1.28,1.28,0,0,0,1.18-.74h2.65a.59.59,0,1,0,0-1.18H13.68a1.15,1.15,0,0,0-.59-.59V5.73a.59.59,0,1,0-1.18,0v5.59a1.32,1.32,0,0,0,.59,2.5Zm0-1.47a.15.15,0,1,1-.15.15A.14.14,0,0,1,12.5,12.35Z"/></g></g></g></g></svg>