<svg xmlns="http://www.w3.org/2000/svg" viewBox="0 0 11.76 14.58"><defs><style>.cls-1{fill:#fff;}</style></defs><title>perfil</title><g id="Layer_2" data-name="Layer 2"><g id="Capa_1" data-name="Capa 1"><g id="Nuevo_símbolo" data-name="Nuevo símbolo"><g id="Nuevo_símbolo_3" data-name="Nuevo símbolo 3"><path class="cls-1" d="M5.9,7.43A3.73,3.73,0,0,0,9.62,3.7a3.73,3.73,0,0,0-7.46,0A3.76,3.76,0,0,0,5.9,7.43"/><path class="cls-1" d="M8.67,8.05a.48.48,0,0,0-.41,0,4.75,4.75,0,0,1-2.74.62,5,5,0,0,1-2.08-.65.35.35,0,0,0-.22,0A4.28,4.28,0,0,0,0,11.69c-.07.95,0,1.9,0,2.85l0,0H11.75c0-.89,0-1.76,0-2.63a4.33,4.33,0,0,0-3.08-3.9"/></g></g></g></g></svg>