<svg xmlns="http://www.w3.org/2000/svg" viewBox="0 0 10.58 19.91"><defs><style>.cls-1{fill:#fff;}</style></defs><title>record</title><g id="Layer_2" data-name="Layer 2"><g id="Capa_1" data-name="Capa 1"><g id="Nuevo_símbolo" data-name="Nuevo símbolo"><g id="Nuevo_símbolo_3" data-name="Nuevo símbolo 3"><path class="cls-1" d="M5.29,13.69a3.41,3.41,0,0,0,3.42-3.42V3.42a3.42,3.42,0,1,0-6.84,0v6.84A3.41,3.41,0,0,0,5.29,13.69Zm2.8-6.53V9H2.49V7.15Zm-5.6-.62V4.67h5.6V6.53ZM5.29.62a2.79,2.79,0,0,1,2.8,2.8V4H2.49V3.42A2.79,2.79,0,0,1,5.29.62Zm-2.8,9h5.6v.62a2.8,2.8,0,1,1-5.6,0ZM5.6,15.52v3.76H8.09a.31.31,0,1,1,0,.62H2.49a.31.31,0,1,1,0-.62H5V15.52a5.28,5.28,0,0,1-5-5.26A.29.29,0,0,1,.31,10a.29.29,0,0,1,.31.31,4.67,4.67,0,1,0,9.33,0,.31.31,0,0,1,.62,0A5.28,5.28,0,0,1,5.6,15.52Z"/></g></g></g></g></svg>