<svg xmlns="http://www.w3.org/2000/svg" viewBox="0 0 12.52 9.1"><title>volume</title><g id="Layer_2" data-name="Layer 2"><g id="Capa_1" data-name="Capa 1"><path d="M6.87.06a.48.48,0,0,0-.49,0L3.12,2.19H.48A.48.48,0,0,0,0,2.66V6.44a.48.48,0,0,0,.48.48H3.12L6.38,9a.48.48,0,0,0,.74-.4V.48A.48.48,0,0,0,6.87.06Z" transform="translate(0 0)"/><path d="M11.4,1.47a.6.6,0,1,0-.92.77,3.61,3.61,0,0,1,0,4.62.6.6,0,1,0,.92.76,4.81,4.81,0,0,0,0-6.16Z" transform="translate(0 0)"/><path d="M8.74,2.71a.6.6,0,0,0,0,.85,1.44,1.44,0,0,1,0,2,.6.6,0,1,0,.87.83,2.64,2.64,0,0,0,0-3.67A.6.6,0,0,0,8.74,2.71Z" transform="translate(0 0)"/></g></g></svg>